<?xml version="1.0" encoding="UTF-8" standalone="no"?>
<!-- Created with Inkscape (http://www.inkscape.org/) -->

<svg
   width="210mm"
   height="297mm"
   viewBox="0 0 210 297"
   version="1.1"
   id="svg5"
   xmlns="http://www.w3.org/2000/svg"
   xmlns:svg="http://www.w3.org/2000/svg">
  <defs
     id="defs2" />
  <g
     id="layer1">
    <circle
       style="fill:#00ffff;fill-opacity:0;stroke:#000000;stroke-width:4.85822;stroke-dasharray:none;stroke-opacity:1"
       id="path851"
       cx="166.13614"
       cy="93.485657"
       r="23.326555" />
    <ellipse
       style="fill:#000000;fill-opacity:1;stroke:#000000;stroke-width:2.59083;stroke-dasharray:none;stroke-opacity:1"
       id="path851-3"
       cx="183.80473"
       cy="228.49803"
       rx="12.524719"
       ry="12.355392" />
    <path
       style="fill:#00ffff;fill-opacity:0;stroke:#000000;stroke-width:4;stroke-dasharray:none;stroke-opacity:1"
       d="m 123.25031,102.07528 c 10.76618,-1.01248 60.35831,76.64509 61.63511,82.29304 0.44111,9.61639 -10.40148,17.93111 -19.3033,10.83695 -7.11219,-7.46537 -43.16642,-53.80499 -43.16642,-53.80499 0,0 -42.499283,12.26068 -44.4729,15.51588 3.070379,3.92492 30.1467,25.93261 33.88539,31.34755 2.60387,7.10244 -7.50423,45.87503 -10.22479,51.02475 -5.550074,4.62827 -12.554094,4.19228 -17.496746,-1.77546 -1.583871,-4.31048 5.220092,-39.99233 5.220092,-39.99233 0,0 -49.425669,-23.84226 -54.913084,-31.27243 -5.177052,-18.84272 -3.701959,-29.0043 1.125123,-30.64616 9.300426,-4.37735 78.114155,-34.35259 87.711525,-33.5268 z"
       id="path1064" />
    <path
       style="fill:#000000;fill-opacity:0;stroke:#000000;stroke-width:4;stroke-dasharray:none;stroke-opacity:1"
       d="m 31.130436,150.62342 c 3.352613,18.82526 5.263612,29.23672 2.394649,42.38528 -3.718135,6.22457 -19.909303,26.47472 -23.228094,31.84883 -0.259452,8.22915 3.846846,15.00954 15.804682,12.21271 4.841422,-5.7469 29.49183,-33.50313 30.651507,-40.70903 0.239137,-3.32164 1.486506,-10.67471 0,-14.84682 -11.304566,-5.12996 -24.426379,-13.99277 -25.622744,-30.89097 z"
       id="path2700" />
  </g>
</svg>
